<?xml version="1.0" standalone="no"?>
<!DOCTYPE svg PUBLIC "-//W3C//DTD SVG 20010904//EN"
 "http://www.w3.org/TR/2001/REC-SVG-20010904/DTD/svg10.dtd">
<svg version="1.0" xmlns="http://www.w3.org/2000/svg"
 width="308.000000pt" height="308.000000pt" viewBox="0 0 308.000000 308.000000"
 preserveAspectRatio="xMidYMid meet">
<metadata>
Created by potrace 1.11, written by Peter Selinger 2001-2013
</metadata>
<g transform="translate(0.000000,308.000000) scale(0.100000,-0.100000)"
fill="#000000" stroke="none">
<path d="M1409 2742 c-64 -53 -192 -160 -285 -237 l-169 -140 -205 -5 c-186
-5 -209 -7 -246 -27 -90 -48 -143 -115 -170 -215 -18 -69 -21 -1295 -3 -1380
23 -106 80 -183 172 -228 l62 -30 970 0 c1117 0 1029 -8 1131 94 99 100 94 49
94 857 l1 698 -26 50 c-35 70 -75 112 -137 147 -53 29 -53 29 -263 34 l-210 5
-85 70 c-47 39 -174 144 -283 235 -110 91 -206 166 -215 167 -10 2 -69 -41
-133 -95z m267 -140 c71 -59 162 -134 202 -166 39 -32 72 -62 72 -67 0 -6
-171 -9 -410 -9 -240 1 -410 5 -410 10 0 5 19 24 43 42 40 31 192 156 310 256
28 23 54 42 58 42 4 0 65 -48 135 -108z m863 -361 c49 -26 97 -81 111 -128 8
-26 10 -245 8 -714 l-3 -676 -30 -43 c-16 -23 -47 -55 -69 -69 l-40 -26 -955
-3 c-1067 -3 -1008 -6 -1075 68 -62 69 -61 51 -61 770 0 729 -1 712 68 777 70
67 -5 62 1050 63 929 0 959 -1 996 -19z"/>
<path d="M640 2187 c-52 -17 -114 -84 -139 -152 -22 -57 -22 -64 -19 -629 3
-524 4 -574 21 -611 34 -75 98 -125 185 -144 78 -16 1665 -16 1727 1 61 16
133 73 162 127 l23 44 0 598 c0 445 -3 605 -12 626 -23 52 -70 104 -119 128
l-48 25 -873 -1 c-610 -1 -884 -4 -908 -12z m1788 -107 c18 -11 41 -34 52 -52
19 -32 20 -52 20 -610 l0 -576 -26 -32 c-59 -69 3 -65 -929 -65 l-840 0 -41
22 c-81 43 -79 27 -82 628 -2 363 0 546 8 581 11 50 38 87 85 112 14 8 269 11
870 12 831 0 851 -1 883 -20z"/>
<path d="M969 1601 c-51 -52 -36 -131 33 -167 36 -19 66 -13 107 22 26 22 31
33 31 71 0 62 -40 103 -100 103 -33 0 -48 -6 -71 -29z"/>
<path d="M1961 1604 c-59 -50 -47 -134 24 -168 47 -23 98 -7 126 38 23 38 24
69 2 106 -32 55 -102 66 -152 24z"/>
<path d="M1270 1070 l0 -50 275 0 275 0 0 50 0 50 -275 0 -275 0 0 -50z"/>
</g>
</svg>
